<?xml version="1.0" encoding="UTF-8" standalone="no"?>
<!DOCTYPE svg PUBLIC "-//W3C//DTD SVG 1.1//EN" "http://www.w3.org/Graphics/SVG/1.1/DTD/svg11.dtd">
<svg width="100%" height="100%" viewBox="0 0 300 36" version="1.1" xmlns="http://www.w3.org/2000/svg" xmlns:xlink="http://www.w3.org/1999/xlink" xml:space="preserve" xmlns:serif="http://www.serif.com/" style="fill-rule:evenodd;clip-rule:evenodd;stroke-linejoin:round;stroke-miterlimit:2;">
    <g transform="matrix(1.01675,0,0,1.01675,-11.7828,-32.9447)">
        <g transform="matrix(54.4002,0,0,54.4002,10.9777,67.5258)">
            <path d="M0.497,-0.64L0.497,-0.525L0.328,-0.525L0.328,-0L0.179,-0L0.179,-0.525L0.011,-0.525L0.011,-0.64L0.497,-0.64Z" style="fill:rgb(17,18,19);fill-rule:nonzero;"/>
        </g>
        <g transform="matrix(54.4002,0,0,54.4002,35.9731,67.5258)">
            <path d="M0.427,-0L0.39,-0.125L0.188,-0.125L0.152,-0L0.003,-0L0.209,-0.64L0.369,-0.64L0.576,-0L0.427,-0ZM0.288,-0.468L0.222,-0.239L0.357,-0.239L0.291,-0.468L0.288,-0.468Z" style="fill:rgb(17,18,19);fill-rule:nonzero;"/>
        </g>
        <g transform="matrix(54.4002,0,0,54.4002,67.0514,67.5258)">
            <path d="M0.451,-0.64L0.565,-0.22L0.567,-0.22L0.651,-0.64L0.795,-0.64L0.648,-0L0.508,-0L0.401,-0.395L0.398,-0.395L0.292,-0L0.152,-0L0.004,-0.64L0.148,-0.64L0.232,-0.22L0.235,-0.22L0.348,-0.64L0.451,-0.64Z" style="fill:rgb(17,18,19);fill-rule:nonzero;"/>
        </g>
        <g transform="matrix(54.4002,0,0,54.4002,110.534,67.5258)">
            <path d="M0.584,-0.64L0.584,-0L0.436,-0L0.202,-0.408L0.199,-0.407L0.199,-0L0.05,-0L0.05,-0.64L0.199,-0.64L0.433,-0.232L0.436,-0.233L0.436,-0.64L0.584,-0.64Z" style="fill:rgb(17,18,19);fill-rule:nonzero;"/>
        </g>
        <g transform="matrix(54.4002,0,0,54.4002,145.066,67.5258)">
            <path d="M0.45,-0.388L0.45,-0.274L0.199,-0.274L0.199,-0.114L0.495,-0.114L0.495,-0L0.05,-0L0.05,-0.64L0.496,-0.64L0.496,-0.525L0.199,-0.525L0.199,-0.388L0.45,-0.388Z" style="fill:rgb(17,18,19);fill-rule:nonzero;"/>
        </g>
        <g transform="matrix(54.4002,0,0,54.4002,172.93,67.5258)">
            <path d="M0.45,-0.388L0.45,-0.274L0.199,-0.274L0.199,-0.114L0.495,-0.114L0.495,-0L0.05,-0L0.05,-0.64L0.496,-0.64L0.496,-0.525L0.199,-0.525L0.199,-0.388L0.45,-0.388Z" style="fill:rgb(17,18,19);fill-rule:nonzero;"/>
        </g>
        <g transform="matrix(54.4002,0,0,54.4002,200.794,67.5258)">
            <rect x="0.06" y="-0.125" width="0.148" height="0.125" style="fill:rgb(241,153,185);fill-rule:nonzero;"/>
        </g>
        <g transform="matrix(54.4002,0,0,54.4002,215.589,67.5258)">
            <path d="M0.271,-0.525L0.199,-0.525L0.199,-0.114L0.271,-0.114C0.31,-0.114 0.341,-0.128 0.364,-0.155C0.386,-0.181 0.397,-0.217 0.397,-0.262L0.397,-0.378C0.397,-0.423 0.386,-0.459 0.364,-0.486C0.341,-0.512 0.31,-0.525 0.271,-0.525ZM0.281,-0L0.05,-0L0.05,-0.64L0.281,-0.64C0.357,-0.64 0.421,-0.615 0.471,-0.566C0.521,-0.517 0.546,-0.454 0.546,-0.377L0.546,-0.262C0.546,-0.186 0.521,-0.123 0.471,-0.074C0.421,-0.025 0.357,-0 0.281,-0Z" style="fill:rgb(241,153,185);fill-rule:nonzero;"/>
        </g>
        <g transform="matrix(54.4002,0,0,54.4002,247.571,67.5258)">
            <path d="M0.45,-0.388L0.45,-0.274L0.199,-0.274L0.199,-0.114L0.495,-0.114L0.495,-0L0.05,-0L0.05,-0.64L0.496,-0.64L0.496,-0.525L0.199,-0.525L0.199,-0.388L0.45,-0.388Z" style="fill:rgb(241,153,185);fill-rule:nonzero;"/>
        </g>
        <g transform="matrix(54.4002,0,0,54.4002,275.435,67.5258)">
            <path d="M0.155,-0.64L0.28,-0.174L0.284,-0.15L0.287,-0.15L0.292,-0.172L0.418,-0.64L0.574,-0.64L0.367,-0L0.206,-0L-0,-0.64L0.155,-0.64Z" style="fill:rgb(241,153,185);fill-rule:nonzero;"/>
        </g>
    </g>
</svg>
